<?xml version="1.0" standalone="no"?>
<!DOCTYPE svg PUBLIC "-//W3C//DTD SVG 20010904//EN"
 "http://www.w3.org/TR/2001/REC-SVG-20010904/DTD/svg10.dtd">
<svg version="1.0" xmlns="http://www.w3.org/2000/svg"
 width="1680.000000pt" height="860.000000pt" viewBox="0 0 1680.000000 860.000000"
 preserveAspectRatio="xMidYMid meet">
<metadata>
Created by potrace 1.16, written by Peter Selinger 2001-2019
</metadata>
<g transform="translate(0.000000,860.000000) scale(0.100000,-0.100000)"
fill="#000000" stroke="none">
<path d="M0 3118 l0 -43 58 -23 c708 -287 1490 -553 2332 -796 420 -120 861
-238 875 -232 9 3 12 12 8 22 -4 10 -2 15 4 11 5 -3 10 -1 10 6 0 8 -16 12
-44 11 -42 -1 -43 0 -43 33 0 18 -5 33 -11 33 -5 0 -7 4 -4 10 4 6 -1 7 -11 3
-13 -5 -15 -3 -9 7 5 8 4 11 -3 6 -6 -4 -8 -14 -5 -23 4 -10 2 -14 -4 -10 -19
12 -21 67 -4 77 9 5 12 12 8 16 -5 5 -12 2 -17 -6 -11 -19 -70 -21 -70 -4 0 9
10 12 30 9 16 -2 30 1 30 6 0 5 -4 9 -10 9 -14 0 -12 27 3 33 7 3 5 6 -5 6
-12 1 -18 -6 -18 -20 0 -12 -5 -19 -12 -16 -7 2 -12 14 -10 26 1 15 -2 21 -10
18 -7 -2 -12 -9 -11 -15 1 -5 -5 -9 -15 -8 -25 2 -36 35 -17 56 20 22 19 41
-1 33 -11 -4 -12 -8 -4 -13 8 -5 9 -10 2 -14 -6 -3 -14 -1 -17 5 -4 5 -14 8
-22 5 -11 -4 -13 -1 -8 14 7 21 -9 28 -21 8 -4 -7 -3 -8 4 -4 8 5 10 2 6 -9
-4 -9 -9 -14 -11 -11 -10 10 -10 42 0 54 8 11 5 12 -19 7 -21 -4 -25 -3 -14 3
8 6 17 10 20 9 10 -1 50 24 50 32 0 5 -10 8 -22 8 -42 1 -48 3 -48 19 0 13 3
14 15 4 9 -7 22 -9 32 -5 10 5 21 8 25 7 4 -1 4 6 1 15 -5 12 -3 14 7 8 9 -5
11 -4 6 4 -4 6 -12 9 -17 6 -5 -4 -9 -2 -9 3 0 5 -10 12 -22 15 -21 5 -21 5
-6 -7 10 -7 15 -16 11 -19 -3 -4 0 -7 8 -7 10 -1 9 -4 -4 -11 -13 -7 -22 -7
-31 0 -9 8 -18 7 -32 -3 -18 -14 -18 -15 -1 -22 11 -4 16 -13 12 -22 -5 -13
-3 -13 11 -1 15 12 17 12 12 -1 -5 -17 -27 -20 -30 -5 0 6 -8 15 -16 21 -9 6
-13 18 -9 27 6 16 -24 43 -35 32 -2 -3 -3 8 0 24 4 28 3 28 -135 76 -275 96
-634 229 -903 335 l-275 109 -185 20 c-102 11 -219 22 -260 26 -41 3 -95 8
-120 10 -79 8 -480 34 -620 40 -74 3 -183 8 -242 11 l-108 5 0 -43z"/>
<path d="M0 2790 l0 -237 263 -81 c523 -162 1237 -358 1972 -543 473 -119
1468 -360 1470 -356 6 6 12 74 8 84 -2 7 -11 9 -19 6 -22 -8 -17 13 8 29 17
11 19 16 8 23 -8 5 -11 4 -7 -2 10 -17 -17 -22 -36 -8 -15 11 -15 14 -3 24 11
9 15 9 19 -1 3 -7 6 1 6 17 1 20 4 26 10 17 4 -8 11 -13 15 -13 17 2 20 0 7
-8 -9 -6 -10 -11 -2 -15 6 -4 11 -3 11 3 0 10 19 9 38 -2 6 -5 16 -6 21 -2 12
7 24 -11 25 -38 1 -21 46 -58 46 -38 0 6 -6 11 -14 11 -18 0 -27 23 -16 41 6
9 2 18 -13 27 -22 13 -22 13 3 7 22 -5 23 -5 7 6 -14 8 -22 8 -30 0 -15 -15
-28 -14 -24 1 2 12 -4 14 -38 17 -9 0 -27 13 -40 27 -16 17 -25 22 -25 13 -1
-8 -7 -3 -14 10 -7 13 -11 33 -9 45 4 15 2 17 -5 8 -5 -8 -12 -13 -16 -13 -19
3 -26 0 -26 -10 0 -5 5 -7 10 -4 6 3 10 -3 10 -14 0 -11 5 -23 11 -27 8 -4 9
1 5 17 -7 24 -7 24 8 -1 8 -14 19 -25 25 -25 6 0 11 -3 11 -7 0 -5 0 -12 0
-18 0 -5 -5 -9 -12 -7 -7 1 -12 -5 -13 -13 0 -9 -8 -14 -18 -12 -17 3 -17 2 0
-16 10 -11 20 -19 23 -18 3 1 6 -2 8 -6 5 -17 2 -28 -9 -28 -5 0 -7 5 -4 10 3
6 2 10 -4 10 -5 0 -17 7 -25 16 -9 8 -16 11 -16 5 0 -6 -5 -11 -11 -11 -7 0
-9 9 -6 23 7 26 -6 52 -22 43 -6 -4 -11 -1 -11 8 0 8 -6 17 -12 19 -7 3 -2 6
11 6 16 1 21 5 18 15 -4 10 -1 13 9 9 13 -5 13 -8 -1 -23 -14 -16 -14 -18 0
-24 9 -3 18 -6 19 -6 1 0 3 11 4 25 1 15 -4 28 -14 32 -11 4 -13 13 -9 34 5
22 3 29 -9 29 -8 0 -18 -5 -21 -10 -3 -6 1 -10 9 -10 12 0 13 -5 5 -30 -6 -16
-17 -30 -25 -30 -8 0 -14 -7 -14 -15 0 -8 5 -15 10 -15 6 0 10 -4 10 -10 0 -5
-7 -10 -16 -10 -14 0 -16 7 -11 41 4 34 3 40 -10 35 -13 -5 -13 -4 -4 8 6 7 8
22 4 31 -4 12 -3 16 5 11 6 -3 13 -2 16 3 7 10 -9 9 -37 -4 -15 -6 -16 -10 -5
-16 9 -6 7 -9 -9 -9 -27 0 -29 7 -7 31 12 13 12 19 3 25 -7 4 -10 3 -6 -3 4
-6 0 -13 -7 -16 -11 -4 -13 0 -11 15 3 11 2 18 -2 15 -3 -4 -13 -2 -23 3 -12
6 -17 5 -17 -4 0 -7 5 -13 11 -12 17 2 19 -19 2 -22 -8 -2 -20 9 -28 24 -12
25 -33 32 -308 106 -1112 298 -2071 607 -2847 918 l-243 97 0 -237z"/>
<path d="M1750 3018 c6 -7 431 -170 605 -233 433 -157 501 -176 445 -127 -8 8
-10 11 -3 8 6 -4 14 -2 18 4 3 5 -2 10 -11 10 -16 0 -16 1 1 20 16 18 16 20 2
20 -10 0 -14 5 -11 15 4 8 11 12 17 8 6 -3 7 -1 3 5 -3 6 1 15 9 20 15 8 15
10 0 22 -9 7 -15 9 -14 4 3 -19 -1 -35 -9 -30 -5 3 -9 -1 -10 -9 -1 -8 -3 -22
-4 -30 -2 -26 -33 -12 -33 15 0 14 5 24 10 23 6 0 16 6 24 14 12 14 12 15 0
11 -7 -2 -20 2 -28 10 -13 12 -17 12 -29 -4 -14 -18 -14 -18 -8 -1 3 11 8 31
11 45 4 21 3 23 -3 8 -8 -19 -9 -19 -32 4 -28 28 -141 51 -590 120 -291 45
-367 55 -360 48z"/>
<path d="M0 2274 l0 -233 38 -10 c277 -75 931 -238 1627 -406 1453 -351 1963
-487 2482 -660 227 -75 274 -88 270 -73 -3 10 -1 21 5 24 12 8 30 -16 23 -33
-2 -6 2 -17 10 -23 16 -13 45 -1 83 33 18 17 24 18 35 7 9 -10 9 -11 0 -6 -9
5 -13 -1 -13 -18 0 -14 -5 -26 -11 -26 -5 0 -7 6 -3 13 6 9 5 9 -8 0 -8 -7
-17 -12 -19 -10 -3 1 1 -4 8 -12 9 -11 15 -12 26 -3 8 7 17 8 21 4 4 -4 7 -2
6 3 -1 6 -1 12 0 15 1 3 3 22 4 42 1 25 -1 35 -8 28 -15 -15 -30 -12 -17 3 8
10 7 14 -4 14 -8 0 -12 -4 -9 -9 11 -17 -13 -7 -30 14 -12 13 -15 23 -8 26 6
2 3 11 -9 23 -20 20 -34 26 -24 9 3 -6 -1 -13 -9 -16 -9 -3 -16 -16 -17 -28
-1 -17 -2 -16 -9 6 -9 30 -3 68 11 68 5 0 9 7 9 15 0 25 -15 17 -27 -15 -6
-16 -16 -30 -23 -30 -6 0 -8 5 -5 10 3 6 1 10 -5 10 -7 0 -10 7 -6 15 4 13 2
14 -14 5 -19 -10 -28 -22 -12 -18 14 5 63 -54 59 -70 -4 -15 -5 -15 -6 1 -1
23 -18 22 -31 -3 -9 -16 -8 -20 5 -20 10 0 13 5 9 13 -6 9 -5 9 8 0 8 -7 18
-10 21 -6 4 3 7 1 7 -5 0 -7 -3 -12 -7 -13 -5 0 -25 -2 -45 -4 -21 -2 -37 -1
-37 3 1 4 1 20 0 36 -1 24 -4 28 -25 24 -14 -3 -31 -1 -38 4 -10 8 -9 9 3 5 9
-3 22 -1 30 4 11 7 11 9 -3 9 -10 0 -18 6 -18 14 0 17 24 38 33 29 7 -7 9 -2
11 37 0 14 7 31 14 39 20 21 -2 38 -24 20 -16 -13 -17 -12 -10 6 5 14 1 24
-16 37 l-23 19 28 -12 c15 -7 30 -10 33 -6 11 11 -7 47 -24 47 -13 0 -13 -2 4
-15 18 -14 17 -14 -9 -5 -36 13 -36 13 -33 -6 1 -9 10 -22 19 -29 23 -16 11
-45 -16 -42 -12 1 -22 -2 -23 -8 -2 -17 -23 -65 -29 -65 -4 0 -3 5 0 10 3 6 0
10 -7 10 -9 0 -9 3 2 10 12 8 9 10 -14 10 -24 0 -27 3 -23 23 4 12 2 29 -3 37
-8 12 -10 10 -11 -10 -1 -14 -1 -31 0 -37 1 -7 -2 -13 -6 -13 -5 0 -9 12 -9
28 0 15 -3 34 -5 42 -3 11 4 14 33 13 22 -2 41 3 49 13 10 12 14 12 20 2 7
-10 9 -9 9 5 0 9 -7 17 -15 17 -9 0 -18 7 -21 15 -4 8 -14 15 -23 14 -10 0
-11 -2 -3 -6 6 -2 9 -10 6 -15 -4 -6 -2 -8 4 -4 11 7 28 -11 19 -20 -3 -3 -17
-7 -31 -8 -19 -3 -24 0 -16 9 6 7 6 23 1 43 -5 17 -6 33 -3 37 4 3 -1 3 -10 0
-9 -4 -18 -21 -20 -40 -3 -27 -1 -32 9 -23 9 7 13 7 13 0 0 -15 -21 -26 -52
-27 -22 -1 -27 5 -33 30 -5 25 -8 27 -15 13 -13 -22 -50 -12 -50 14 0 12 6 18
18 16 11 -2 17 3 16 15 -2 14 1 15 11 7 10 -8 13 -7 11 4 -3 22 -13 29 -31 22
-13 -5 -14 -10 -4 -28 l11 -23 -21 22 c-12 13 -29 20 -42 18 -17 -3 -20 0 -16
15 3 11 2 18 -2 16 -4 -3 -15 4 -25 15 -9 12 -24 18 -32 15 -8 -3 -14 -1 -14
4 0 6 10 10 23 11 22 1 22 1 -2 8 -20 5 -22 8 -9 19 25 20 55 1 49 -31 -3 -14
22 -2 27 13 3 7 0 10 -7 6 -6 -4 -11 -3 -11 3 0 5 6 12 13 15 8 4 7 5 -3 5
-31 -2 -39 1 -34 16 4 10 0 13 -15 10 -12 -2 -21 0 -21 6 0 5 -5 9 -12 9 -6 0
-3 -9 7 -20 18 -20 17 -20 -8 -20 -14 0 -28 6 -30 13 -4 10 -6 10 -6 0 -1 -16
-31 -17 -31 -2 0 5 6 7 13 3 9 -6 9 -5 0 7 -6 8 -11 19 -12 24 0 6 -154 48
-343 93 -1594 388 -2507 629 -3245 860 l-253 79 0 -233z"/>
<path d="M0 1790 l0 -199 38 -10 c20 -6 75 -19 122 -30 76 -18 341 -83 925
-226 1289 -317 2048 -581 2458 -855 190 -127 337 -288 384 -420 l18 -50 777 0
c647 0 778 2 778 14 0 33 -23 76 -41 76 -13 0 -19 7 -19 21 0 11 4 17 10 14
14 -9 12 4 -2 19 -7 7 -26 12 -42 12 -24 -1 -30 3 -31 22 -1 13 5 26 12 31 12
6 11 10 -3 22 -11 9 -15 9 -10 2 10 -17 -34 -13 -53 5 -18 17 -6 28 14 12 9
-7 18 -10 22 -6 3 3 2 6 -4 6 -5 0 -22 11 -37 25 -14 13 -26 20 -26 16 0 -13
-222 -11 -237 1 -9 7 -13 7 -13 -1 0 -6 -5 -11 -11 -11 -5 0 -7 6 -3 12 6 10
4 10 -7 1 -19 -19 -24 -16 -27 13 -3 34 8 50 20 33 7 -10 8 -7 4 10 -3 14 0
31 6 38 7 9 7 13 0 13 -6 0 -9 7 -6 15 4 8 1 15 -5 15 -6 0 -11 -9 -11 -21 0
-11 -4 -17 -10 -14 -6 3 -10 1 -10 -4 0 -6 -5 -11 -11 -11 -5 0 -8 4 -5 8 14
22 -25 41 -57 28 -9 -5 -24 -5 -33 -2 -14 5 -14 9 -3 22 16 20 -2 34 -44 34
-27 0 -28 2 -24 35 5 34 4 35 -29 35 -38 0 -54 16 -24 25 11 4 17 11 14 17 -4
7 -9 6 -14 -2 -5 -8 -7 -3 -7 13 2 28 17 38 17 12 0 -8 5 -15 11 -15 7 0 9 -9
6 -21 -4 -16 -1 -20 16 -17 17 2 21 9 19 28 -4 21 -2 22 12 11 30 -25 16 -6
-20 29 l-37 34 17 -32 c14 -27 14 -31 1 -26 -8 4 -18 17 -21 30 -5 19 -9 22
-20 13 -20 -17 -43 -4 -37 20 5 20 23 30 23 13 0 -5 7 -9 15 -9 18 0 20 16 3
18 -7 1 -23 3 -36 4 -12 1 -25 -2 -29 -8 -4 -6 -1 -7 7 -2 10 6 12 3 7 -14 -3
-15 2 -28 16 -41 l21 -20 -30 0 c-28 0 -31 3 -32 35 -2 52 -52 129 -52 80 0
-8 6 -15 14 -15 8 0 16 -7 20 -15 7 -18 -5 -20 -23 -3 -11 10 -13 10 -7 1 4
-7 2 -13 -4 -13 -7 0 -10 7 -7 15 4 8 2 17 -4 20 -5 4 -7 11 -4 16 6 9 -14 13
-48 9 -15 -1 -17 3 -13 18 6 18 -6 25 -101 62 -475 184 -1202 386 -2628 730
-187 45 -670 165 -1074 266 -404 101 -736 184 -738 184 -1 0 -3 -90 -3 -200z"/>
<path d="M0 1317 l0 -224 213 -58 c257 -70 710 -209 867 -265 363 -130 674
-274 865 -401 125 -84 283 -235 330 -317 l30 -52 793 0 c538 0 792 3 792 10 0
15 -48 109 -80 155 -40 58 -132 148 -219 214 -316 240 -901 471 -1839 725
-379 103 -1710 436 -1742 436 -6 0 -10 -88 -10 -223z"/>
<path d="M0 751 l0 -291 89 -45 c215 -107 393 -233 497 -349 l59 -66 803 0
c441 0 802 3 802 6 0 4 -23 38 -52 77 -192 259 -655 497 -1463 752 -185 59
-646 190 -701 201 l-34 6 0 -291z"/>
<path d="M0 400 c0 -6 9 -38 21 -72 43 -130 129 -225 257 -286 72 -35 84 -37
191 -41 l115 -3 -16 23 c-24 38 -166 156 -263 220 -107 71 -305 174 -305 159z"/>
</g>
</svg>
